<svg xmlns="http://www.w3.org/2000/svg" viewBox="0 0 64 64" fill="none">
  <rect width="64" height="64" rx="16" fill="#141416"/>
  <rect x="2" y="2" width="60" height="60" rx="14" stroke="#c5a059" stroke-width="1.5" stroke-opacity="0.4"/>
  <!-- LD Monogram stylized -->
  <path d="M12 18H20V46H28L20 36H12V18Z" fill="#ffffff"/>
  <path d="M48 18C56 25 58 35 58 35C58 35 56 45 48 50C54 44 54 38 54 35C54 32 54 24 48 18Z" fill="#ffffff"/>
  <!-- Gold Perfume Bottle -->
  <rect x="27" y="14" width="10" height="5" rx="1" stroke="#c5a059" stroke-width="1.2" fill="#1c1c1f"/>
  <path d="M21 24 L28 20 L36 20 L43 24 L40 48 L24 48 Z" stroke="#c5a059" stroke-width="1.5" fill="#1c1c1f"/>
  <rect x="26" y="29" width="12" height="10" rx="1" stroke="#c5a059" stroke-width="1" fill="#c5a059" fill-opacity="0.2"/>
</svg>